<svg width="48" height="48" viewBox="0 0 48 48" fill="none" xmlns="http://www.w3.org/2000/svg">
<circle cx="24" cy="24" r="24" fill="#8F8F8F" fill-opacity="0.64"/>
<path d="M28.5 15C31.538 15 34 17.5 34 21C34 28 26.5 32 24 33.5C21.5 32 14 28 14 21C14 17.5 16.5 15 19.5 15C21.36 15 23 16 24 17C25 16 26.64 15 28.5 15ZM24.934 30.604C25.815 30.048 26.61 29.495 27.354 28.903C30.335 26.533 32 23.943 32 21C32 18.64 30.463 17 28.5 17C27.424 17 26.26 17.57 25.414 18.414L24 19.828L22.586 18.414C21.74 17.57 20.576 17 19.5 17C17.56 17 16 18.656 16 21C16 23.944 17.666 26.533 20.645 28.903C21.39 29.495 22.185 30.048 23.066 30.603C23.365 30.792 23.661 30.973 24 31.175C24.339 30.973 24.635 30.792 24.934 30.604Z" fill="white"/>
</svg>
