<svg width="31" height="47" viewBox="0 0 31 47" fill="none" xmlns="http://www.w3.org/2000/svg">
<path d="M22.5 20H8.5V21C8.5 21.2652 8.39464 21.5196 8.20711 21.7071C8.01957 21.8946 7.76522 22 7.5 22H6.5C6.23478 22 5.98043 21.8946 5.79289 21.7071C5.60536 21.5196 5.5 21.2652 5.5 21V11L7.98 5.212C8.13432 4.852 8.39096 4.54524 8.71805 4.32978C9.04515 4.11432 9.42832 3.99965 9.82 4H21.18C21.5713 4.00004 21.9541 4.1149 22.2808 4.33033C22.6075 4.54577 22.8638 4.85231 23.018 5.212L25.5 11V21C25.5 21.2652 25.3946 21.5196 25.2071 21.7071C25.0196 21.8946 24.7652 22 24.5 22H23.5C23.2348 22 22.9804 21.8946 22.7929 21.7071C22.6054 21.5196 22.5 21.2652 22.5 21V20ZM23.5 13H7.5V18H23.5V13ZM7.676 11H23.324L21.181 6H9.82L7.677 11H7.676ZM10 17C9.60218 17 9.22064 16.842 8.93934 16.5607C8.65804 16.2794 8.5 15.8978 8.5 15.5C8.5 15.1022 8.65804 14.7206 8.93934 14.4393C9.22064 14.158 9.60218 14 10 14C10.3978 14 10.7794 14.158 11.0607 14.4393C11.342 14.7206 11.5 15.1022 11.5 15.5C11.5 15.8978 11.342 16.2794 11.0607 16.5607C10.7794 16.842 10.3978 17 10 17ZM21 17C20.6022 17 20.2206 16.842 19.9393 16.5607C19.658 16.2794 19.5 15.8978 19.5 15.5C19.5 15.1022 19.658 14.7206 19.9393 14.4393C20.2206 14.158 20.6022 14 21 14C21.3978 14 21.7794 14.158 22.0607 14.4393C22.342 14.7206 22.5 15.1022 22.5 15.5C22.5 15.8978 22.342 16.2794 22.0607 16.5607C21.7794 16.842 21.3978 17 21 17Z" fill="#666666"/>
<path d="M8.94141 43H7.7793V38.29H2.5293V43H1.36719V33.0059H2.5293V37.2646H7.7793V33.0059H8.94141V43ZM17.9785 39.2402C17.9785 39.8555 17.8988 40.4046 17.7393 40.8877C17.5798 41.3708 17.3496 41.7786 17.0488 42.1113C16.748 42.444 16.3835 42.6992 15.9551 42.877C15.5312 43.0501 15.0505 43.1367 14.5127 43.1367C14.0114 43.1367 13.5511 43.0501 13.1318 42.877C12.7171 42.6992 12.3571 42.444 12.0518 42.1113C11.751 41.7786 11.5163 41.3708 11.3477 40.8877C11.1836 40.4046 11.1016 39.8555 11.1016 39.2402C11.1016 38.4199 11.2406 37.7227 11.5186 37.1484C11.7965 36.5697 12.193 36.1299 12.708 35.8291C13.2275 35.5238 13.8451 35.3711 14.5605 35.3711C15.2441 35.3711 15.8411 35.5238 16.3516 35.8291C16.8665 36.1344 17.2653 36.5765 17.5479 37.1553C17.835 37.7295 17.9785 38.4245 17.9785 39.2402ZM12.2773 39.2402C12.2773 39.8418 12.3571 40.3636 12.5166 40.8057C12.6761 41.2477 12.9222 41.5895 13.2549 41.8311C13.5876 42.0726 14.016 42.1934 14.54 42.1934C15.0596 42.1934 15.4857 42.0726 15.8184 41.8311C16.1556 41.5895 16.404 41.2477 16.5635 40.8057C16.723 40.3636 16.8027 39.8418 16.8027 39.2402C16.8027 38.6432 16.723 38.1283 16.5635 37.6953C16.404 37.2578 16.1579 36.9206 15.8252 36.6836C15.4925 36.4466 15.0618 36.3281 14.5332 36.3281C13.7539 36.3281 13.182 36.5856 12.8174 37.1006C12.4574 37.6156 12.2773 38.3288 12.2773 39.2402ZM24.7871 40.9492C24.7871 41.4277 24.6663 41.8311 24.4248 42.1592C24.1878 42.4827 23.846 42.7266 23.3994 42.8906C22.9574 43.0547 22.4287 43.1367 21.8135 43.1367C21.2894 43.1367 20.8359 43.0957 20.4531 43.0137C20.0703 42.9316 19.7354 42.8154 19.4482 42.665V41.6191C19.7536 41.7695 20.1182 41.9062 20.542 42.0293C20.9658 42.1523 21.3988 42.2139 21.8408 42.2139C22.488 42.2139 22.9574 42.109 23.249 41.8994C23.5407 41.6898 23.6865 41.4049 23.6865 41.0449C23.6865 40.8398 23.6273 40.6598 23.5088 40.5049C23.3949 40.3454 23.2012 40.1927 22.9277 40.0469C22.6543 39.8965 22.276 39.7324 21.793 39.5547C21.3145 39.3724 20.8997 39.1924 20.5488 39.0146C20.2025 38.8324 19.9336 38.6113 19.7422 38.3516C19.5553 38.0918 19.4619 37.7546 19.4619 37.3398C19.4619 36.7064 19.7171 36.221 20.2275 35.8838C20.7425 35.542 21.417 35.3711 22.251 35.3711C22.7021 35.3711 23.1237 35.4167 23.5156 35.5078C23.9121 35.5944 24.2812 35.7129 24.623 35.8633L24.2402 36.7725C23.9303 36.6403 23.5999 36.5286 23.249 36.4375C22.8981 36.3464 22.5404 36.3008 22.1758 36.3008C21.6517 36.3008 21.2484 36.3874 20.9658 36.5605C20.6878 36.7337 20.5488 36.9707 20.5488 37.2715C20.5488 37.5039 20.6126 37.6953 20.7402 37.8457C20.8724 37.9961 21.082 38.1374 21.3691 38.2695C21.6562 38.4017 22.0345 38.5566 22.5039 38.7344C22.9733 38.9076 23.3789 39.0876 23.7207 39.2744C24.0625 39.4567 24.3245 39.68 24.5068 39.9443C24.6937 40.2041 24.7871 40.5391 24.7871 40.9492ZM29.0322 42.207C29.2191 42.207 29.4105 42.1911 29.6064 42.1592C29.8024 42.1273 29.9619 42.0885 30.085 42.043V42.9248C29.9528 42.984 29.7682 43.0342 29.5312 43.0752C29.2988 43.1162 29.071 43.1367 28.8477 43.1367C28.4512 43.1367 28.0911 43.0684 27.7676 42.9316C27.444 42.7904 27.1842 42.5534 26.9883 42.2207C26.7969 41.888 26.7012 41.4277 26.7012 40.8398V36.3965H25.6348V35.8428L26.708 35.3984L27.1592 33.7715H27.8428V35.5078H30.0371V36.3965H27.8428V40.8057C27.8428 41.2751 27.9499 41.626 28.1641 41.8584C28.3828 42.0908 28.6722 42.207 29.0322 42.207Z" fill="#666666"/>
</svg>
