<svg width="58" height="47" viewBox="0 0 58 47" fill="none" xmlns="http://www.w3.org/2000/svg">
<path d="M31.45 19L29 22.5L26.55 19H20C19.7348 19 19.4804 18.8946 19.2929 18.7071C19.1054 18.5196 19 18.2652 19 18V4C19 3.73478 19.1054 3.48043 19.2929 3.29289C19.4804 3.10536 19.7348 3 20 3H38C38.2652 3 38.5196 3.10536 38.7071 3.29289C38.8946 3.48043 39 3.73478 39 4V18C39 18.2652 38.8946 18.5196 38.7071 18.7071C38.5196 18.8946 38.2652 19 38 19H31.45ZM30.409 17H37V5H21V17H27.591L29 19.012L30.409 17Z" fill="#666666"/>
<path d="M5.7627 43L2.40625 34.1543H2.35156C2.36979 34.3411 2.38574 34.569 2.39941 34.8379C2.41309 35.1068 2.42448 35.4007 2.43359 35.7197C2.44271 36.0342 2.44727 36.3555 2.44727 36.6836V43H1.36719V33.0059H3.08984L6.25488 41.3184H6.30273L9.51562 33.0059H11.2246V43H10.0762V36.6016C10.0762 36.3053 10.0807 36.0091 10.0898 35.7129C10.099 35.4121 10.1104 35.1296 10.124 34.8652C10.1377 34.5964 10.1514 34.3639 10.165 34.168H10.1104L6.71289 43H5.7627ZM16.6729 35.3711C17.3109 35.3711 17.8577 35.5124 18.3135 35.7949C18.7692 36.0775 19.1178 36.474 19.3594 36.9844C19.6009 37.4902 19.7217 38.0827 19.7217 38.7617V39.4658H14.5469C14.5605 40.3454 14.7793 41.0153 15.2031 41.4756C15.627 41.9359 16.224 42.166 16.9941 42.166C17.4681 42.166 17.8874 42.1227 18.252 42.0361C18.6165 41.9495 18.9948 41.8219 19.3867 41.6533V42.6514C19.0085 42.82 18.6325 42.943 18.2588 43.0205C17.8896 43.098 17.4521 43.1367 16.9463 43.1367C16.2262 43.1367 15.5973 42.9909 15.0596 42.6992C14.5264 42.403 14.1117 41.9701 13.8154 41.4004C13.5192 40.8307 13.3711 40.1335 13.3711 39.3086C13.3711 38.502 13.5055 37.8047 13.7744 37.2168C14.0479 36.6243 14.4307 36.1686 14.9229 35.8496C15.4196 35.5306 16.0029 35.3711 16.6729 35.3711ZM16.6592 36.3008C16.0531 36.3008 15.57 36.499 15.21 36.8955C14.8499 37.292 14.6357 37.8457 14.5674 38.5566H18.5322C18.5277 38.11 18.457 37.7181 18.3203 37.3809C18.1882 37.0391 17.9854 36.7747 17.7119 36.5879C17.4385 36.3965 17.0876 36.3008 16.6592 36.3008ZM26.4961 40.9492C26.4961 41.4277 26.3753 41.8311 26.1338 42.1592C25.8968 42.4827 25.555 42.7266 25.1084 42.8906C24.6663 43.0547 24.1377 43.1367 23.5225 43.1367C22.9984 43.1367 22.5449 43.0957 22.1621 43.0137C21.7793 42.9316 21.4443 42.8154 21.1572 42.665V41.6191C21.4626 41.7695 21.8271 41.9062 22.251 42.0293C22.6748 42.1523 23.1077 42.2139 23.5498 42.2139C24.1969 42.2139 24.6663 42.109 24.958 41.8994C25.2497 41.6898 25.3955 41.4049 25.3955 41.0449C25.3955 40.8398 25.3363 40.6598 25.2178 40.5049C25.1038 40.3454 24.9102 40.1927 24.6367 40.0469C24.3633 39.8965 23.985 39.7324 23.502 39.5547C23.0234 39.3724 22.6087 39.1924 22.2578 39.0146C21.9115 38.8324 21.6426 38.6113 21.4512 38.3516C21.2643 38.0918 21.1709 37.7546 21.1709 37.3398C21.1709 36.7064 21.4261 36.221 21.9365 35.8838C22.4515 35.542 23.126 35.3711 23.96 35.3711C24.4111 35.3711 24.8327 35.4167 25.2246 35.5078C25.6211 35.5944 25.9902 35.7129 26.332 35.8633L25.9492 36.7725C25.6393 36.6403 25.3089 36.5286 24.958 36.4375C24.6071 36.3464 24.2493 36.3008 23.8848 36.3008C23.3607 36.3008 22.9574 36.3874 22.6748 36.5605C22.3968 36.7337 22.2578 36.9707 22.2578 37.2715C22.2578 37.5039 22.3216 37.6953 22.4492 37.8457C22.5814 37.9961 22.791 38.1374 23.0781 38.2695C23.3652 38.4017 23.7435 38.5566 24.2129 38.7344C24.6823 38.9076 25.0879 39.0876 25.4297 39.2744C25.7715 39.4567 26.0335 39.68 26.2158 39.9443C26.4027 40.2041 26.4961 40.5391 26.4961 40.9492ZM33.168 40.9492C33.168 41.4277 33.0472 41.8311 32.8057 42.1592C32.5687 42.4827 32.2269 42.7266 31.7803 42.8906C31.3382 43.0547 30.8096 43.1367 30.1943 43.1367C29.6702 43.1367 29.2168 43.0957 28.834 43.0137C28.4512 42.9316 28.1162 42.8154 27.8291 42.665V41.6191C28.1344 41.7695 28.499 41.9062 28.9229 42.0293C29.3467 42.1523 29.7796 42.2139 30.2217 42.2139C30.8688 42.2139 31.3382 42.109 31.6299 41.8994C31.9215 41.6898 32.0674 41.4049 32.0674 41.0449C32.0674 40.8398 32.0081 40.6598 31.8896 40.5049C31.7757 40.3454 31.582 40.1927 31.3086 40.0469C31.0352 39.8965 30.6569 39.7324 30.1738 39.5547C29.6953 39.3724 29.2806 39.1924 28.9297 39.0146C28.5833 38.8324 28.3145 38.6113 28.123 38.3516C27.9362 38.0918 27.8428 37.7546 27.8428 37.3398C27.8428 36.7064 28.098 36.221 28.6084 35.8838C29.1234 35.542 29.7979 35.3711 30.6318 35.3711C31.083 35.3711 31.5046 35.4167 31.8965 35.5078C32.293 35.5944 32.6621 35.7129 33.0039 35.8633L32.6211 36.7725C32.3112 36.6403 31.9808 36.5286 31.6299 36.4375C31.279 36.3464 30.9212 36.3008 30.5566 36.3008C30.0326 36.3008 29.6292 36.3874 29.3467 36.5605C29.0687 36.7337 28.9297 36.9707 28.9297 37.2715C28.9297 37.5039 28.9935 37.6953 29.1211 37.8457C29.2533 37.9961 29.4629 38.1374 29.75 38.2695C30.0371 38.4017 30.4154 38.5566 30.8848 38.7344C31.3542 38.9076 31.7598 39.0876 32.1016 39.2744C32.4434 39.4567 32.7054 39.68 32.8877 39.9443C33.0745 40.2041 33.168 40.5391 33.168 40.9492ZM37.7959 35.3848C38.6891 35.3848 39.3522 35.5853 39.7852 35.9863C40.2181 36.3874 40.4346 37.0277 40.4346 37.9072V43H39.6074L39.3887 41.8926H39.334C39.1243 42.166 38.9056 42.3962 38.6777 42.583C38.4499 42.7653 38.1855 42.9043 37.8848 43C37.5885 43.0911 37.224 43.1367 36.791 43.1367C36.3353 43.1367 35.9297 43.057 35.5742 42.8975C35.2233 42.738 34.9453 42.4964 34.7402 42.1729C34.5397 41.8493 34.4395 41.4391 34.4395 40.9424C34.4395 40.195 34.7357 39.6208 35.3281 39.2197C35.9206 38.8187 36.8229 38.5999 38.0352 38.5635L39.3271 38.5088V38.0508C39.3271 37.4036 39.1882 36.9502 38.9102 36.6904C38.6322 36.4307 38.2402 36.3008 37.7344 36.3008C37.3424 36.3008 36.9688 36.3577 36.6133 36.4717C36.2578 36.5856 35.9206 36.7201 35.6016 36.875L35.2529 36.0137C35.5902 35.8405 35.9775 35.6924 36.415 35.5693C36.8525 35.4463 37.3128 35.3848 37.7959 35.3848ZM39.3135 39.3086L38.1719 39.3564C37.2376 39.3929 36.5791 39.5456 36.1963 39.8145C35.8135 40.0833 35.6221 40.4639 35.6221 40.9561C35.6221 41.3844 35.752 41.7012 36.0117 41.9062C36.2715 42.1113 36.6156 42.2139 37.0439 42.2139C37.7093 42.2139 38.2539 42.0293 38.6777 41.6602C39.1016 41.291 39.3135 40.7373 39.3135 39.999V39.3086ZM44.8643 46.3633C43.8799 46.3633 43.1211 46.1787 42.5879 45.8096C42.0547 45.445 41.7881 44.9323 41.7881 44.2715C41.7881 43.8021 41.9362 43.401 42.2324 43.0684C42.5332 42.7357 42.9479 42.5146 43.4766 42.4053C43.2806 42.3141 43.112 42.1774 42.9707 41.9951C42.834 41.8128 42.7656 41.6032 42.7656 41.3662C42.7656 41.0928 42.8408 40.8535 42.9912 40.6484C43.1462 40.4388 43.3809 40.2383 43.6953 40.0469C43.3034 39.8874 42.9844 39.6185 42.7383 39.2402C42.4967 38.8574 42.376 38.4131 42.376 37.9072C42.376 37.3695 42.4876 36.9115 42.7109 36.5332C42.9342 36.1504 43.2578 35.8587 43.6816 35.6582C44.1055 35.4577 44.6182 35.3574 45.2197 35.3574C45.3519 35.3574 45.484 35.3643 45.6162 35.3779C45.7529 35.387 45.8828 35.403 46.0059 35.4258C46.1289 35.444 46.236 35.4668 46.3271 35.4941H48.8975V36.2256L47.5166 36.3965C47.6533 36.5742 47.7673 36.7884 47.8584 37.0391C47.9495 37.2897 47.9951 37.5677 47.9951 37.873C47.9951 38.6204 47.7422 39.2152 47.2363 39.6572C46.7305 40.0947 46.0355 40.3135 45.1514 40.3135C44.9417 40.3135 44.7275 40.2952 44.5088 40.2588C44.2855 40.3818 44.1146 40.5186 43.9961 40.6689C43.8822 40.8193 43.8252 40.9925 43.8252 41.1885C43.8252 41.3343 43.8685 41.4505 43.9551 41.5371C44.0462 41.6237 44.1761 41.6875 44.3447 41.7285C44.5133 41.765 44.7161 41.7832 44.9531 41.7832H46.2725C47.0882 41.7832 47.7126 41.9541 48.1455 42.2959C48.583 42.6377 48.8018 43.1367 48.8018 43.793C48.8018 44.6224 48.4645 45.2581 47.79 45.7002C47.1156 46.1423 46.1403 46.3633 44.8643 46.3633ZM44.8984 45.4746C45.5182 45.4746 46.0309 45.4108 46.4365 45.2832C46.8467 45.1602 47.152 44.9801 47.3525 44.7432C47.5576 44.5107 47.6602 44.2327 47.6602 43.9092C47.6602 43.6084 47.5918 43.3805 47.4551 43.2256C47.3184 43.0752 47.1178 42.9749 46.8535 42.9248C46.5892 42.8701 46.2656 42.8428 45.8828 42.8428H44.584C44.2467 42.8428 43.9528 42.8952 43.7021 43C43.4515 43.1048 43.2578 43.2598 43.1211 43.4648C42.9889 43.6699 42.9229 43.9251 42.9229 44.2305C42.9229 44.6361 43.0938 44.9437 43.4355 45.1533C43.7773 45.3675 44.265 45.4746 44.8984 45.4746ZM45.1924 39.4863C45.7347 39.4863 46.1426 39.3496 46.416 39.0762C46.6895 38.8027 46.8262 38.404 46.8262 37.8799C46.8262 37.3193 46.6872 36.9001 46.4092 36.6221C46.1312 36.3395 45.721 36.1982 45.1787 36.1982C44.6592 36.1982 44.2581 36.3441 43.9756 36.6357C43.6976 36.9229 43.5586 37.3444 43.5586 37.9004C43.5586 38.4108 43.6999 38.8027 43.9824 39.0762C44.265 39.3496 44.6683 39.4863 45.1924 39.4863ZM53.2588 35.3711C53.8968 35.3711 54.4437 35.5124 54.8994 35.7949C55.3551 36.0775 55.7038 36.474 55.9453 36.9844C56.1868 37.4902 56.3076 38.0827 56.3076 38.7617V39.4658H51.1328C51.1465 40.3454 51.3652 41.0153 51.7891 41.4756C52.2129 41.9359 52.8099 42.166 53.5801 42.166C54.054 42.166 54.4733 42.1227 54.8379 42.0361C55.2025 41.9495 55.5807 41.8219 55.9727 41.6533V42.6514C55.5944 42.82 55.2184 42.943 54.8447 43.0205C54.4756 43.098 54.0381 43.1367 53.5322 43.1367C52.8122 43.1367 52.1833 42.9909 51.6455 42.6992C51.1123 42.403 50.6976 41.9701 50.4014 41.4004C50.1051 40.8307 49.957 40.1335 49.957 39.3086C49.957 38.502 50.0915 37.8047 50.3604 37.2168C50.6338 36.6243 51.0166 36.1686 51.5088 35.8496C52.0055 35.5306 52.5889 35.3711 53.2588 35.3711ZM53.2451 36.3008C52.639 36.3008 52.1559 36.499 51.7959 36.8955C51.4359 37.292 51.2217 37.8457 51.1533 38.5566H55.1182C55.1136 38.11 55.043 37.7181 54.9062 37.3809C54.7741 37.0391 54.5713 36.7747 54.2979 36.5879C54.0244 36.3965 53.6735 36.3008 53.2451 36.3008Z" fill="#666666"/>
</svg>
