<svg width="43" height="47" viewBox="0 0 43 47" fill="none" xmlns="http://www.w3.org/2000/svg">
<path d="M21.5 17C25.162 17 28.365 18.575 30.107 20.925L28.265 21.796C26.847 20.116 24.347 19 21.5 19C18.653 19 16.153 20.116 14.735 21.796L12.894 20.924C14.636 18.574 17.838 17 21.5 17ZM21.5 2C22.8261 2 24.0979 2.52678 25.0356 3.46447C25.9733 4.40215 26.5 5.67392 26.5 7V10C26.5 11.2885 26.0025 12.5272 25.1114 13.4578C24.2203 14.3884 23.0043 14.9391 21.717 14.995L21.5 15C20.174 15 18.9022 14.4732 17.9645 13.5355C17.0268 12.5979 16.5 11.3261 16.5 10V7C16.5001 5.71154 16.9976 4.47284 17.8887 3.54222C18.7798 2.61161 19.9958 2.06092 21.283 2.005L21.5 2ZM21.5 4C20.7348 3.99996 19.9985 4.29233 19.4418 4.81728C18.885 5.34224 18.5499 6.06011 18.505 6.824L18.5 7V10C18.4993 10.7809 18.8031 11.5313 19.3468 12.0918C19.8906 12.6523 20.6314 12.9787 21.412 13.0016C22.1926 13.0245 22.9513 12.7422 23.527 12.2145C24.1027 11.6869 24.45 10.9556 24.495 10.176L24.5 10V7C24.5 6.20435 24.184 5.44129 23.6214 4.87868C23.0588 4.31607 22.2957 4 21.5 4Z" fill="#666666"/>
<path d="M3.97852 33.0059C5.26823 33.0059 6.20931 33.2588 6.80176 33.7646C7.39876 34.266 7.69727 34.986 7.69727 35.9248C7.69727 36.3486 7.62663 36.752 7.48535 37.1348C7.34863 37.513 7.12533 37.848 6.81543 38.1396C6.50553 38.4268 6.09766 38.6546 5.5918 38.8232C5.09049 38.9873 4.47526 39.0693 3.74609 39.0693H2.5293V43H1.36719V33.0059H3.97852ZM3.86914 33.9971H2.5293V38.0713H3.61621C4.25423 38.0713 4.78516 38.0029 5.20898 37.8662C5.63737 37.7295 5.95866 37.5085 6.17285 37.2031C6.38704 36.8932 6.49414 36.4831 6.49414 35.9727C6.49414 35.3073 6.28223 34.8128 5.8584 34.4893C5.43457 34.1611 4.77148 33.9971 3.86914 33.9971ZM13.0225 35.3711C13.1729 35.3711 13.3301 35.3802 13.4941 35.3984C13.6582 35.4121 13.804 35.4326 13.9316 35.46L13.7881 36.5127C13.665 36.4808 13.5283 36.4557 13.3779 36.4375C13.2275 36.4193 13.0863 36.4102 12.9541 36.4102C12.6533 36.4102 12.3685 36.4717 12.0996 36.5947C11.8353 36.7132 11.6029 36.8864 11.4023 37.1143C11.2018 37.3376 11.0446 37.6087 10.9307 37.9277C10.8167 38.2422 10.7598 38.5931 10.7598 38.9805V43H9.61816V35.5078H10.5615L10.6846 36.8887H10.7324C10.8874 36.6107 11.0742 36.3577 11.293 36.1299C11.5117 35.8975 11.7646 35.7129 12.0518 35.5762C12.3434 35.4395 12.667 35.3711 13.0225 35.3711ZM21.8066 39.2402C21.8066 39.8555 21.7269 40.4046 21.5674 40.8877C21.4079 41.3708 21.1777 41.7786 20.877 42.1113C20.5762 42.444 20.2116 42.6992 19.7832 42.877C19.3594 43.0501 18.8786 43.1367 18.3408 43.1367C17.8395 43.1367 17.3792 43.0501 16.96 42.877C16.5452 42.6992 16.1852 42.444 15.8799 42.1113C15.5791 41.7786 15.3444 41.3708 15.1758 40.8877C15.0117 40.4046 14.9297 39.8555 14.9297 39.2402C14.9297 38.4199 15.0687 37.7227 15.3467 37.1484C15.6247 36.5697 16.0212 36.1299 16.5361 35.8291C17.0557 35.5238 17.6732 35.3711 18.3887 35.3711C19.0723 35.3711 19.6693 35.5238 20.1797 35.8291C20.6947 36.1344 21.0934 36.5765 21.376 37.1553C21.6631 37.7295 21.8066 38.4245 21.8066 39.2402ZM16.1055 39.2402C16.1055 39.8418 16.1852 40.3636 16.3447 40.8057C16.5042 41.2477 16.7503 41.5895 17.083 41.8311C17.4157 42.0726 17.8441 42.1934 18.3682 42.1934C18.8877 42.1934 19.3138 42.0726 19.6465 41.8311C19.9837 41.5895 20.2321 41.2477 20.3916 40.8057C20.5511 40.3636 20.6309 39.8418 20.6309 39.2402C20.6309 38.6432 20.5511 38.1283 20.3916 37.6953C20.2321 37.2578 19.986 36.9206 19.6533 36.6836C19.3206 36.4466 18.89 36.3281 18.3613 36.3281C17.582 36.3281 17.0101 36.5856 16.6455 37.1006C16.2855 37.6156 16.1055 38.3288 16.1055 39.2402ZM27.1045 36.3965H25.2383V43H24.1035V36.3965H22.7773V35.8496L24.1035 35.4736V34.9746C24.1035 34.3457 24.1969 33.8353 24.3838 33.4434C24.5706 33.0469 24.8418 32.7552 25.1973 32.5684C25.5527 32.3815 25.9857 32.2881 26.4961 32.2881C26.7832 32.2881 27.0452 32.3132 27.2822 32.3633C27.5238 32.4134 27.7357 32.4704 27.918 32.5342L27.624 33.4297C27.4691 33.3796 27.2936 33.334 27.0977 33.293C26.9062 33.2474 26.7103 33.2246 26.5098 33.2246C26.0768 33.2246 25.7555 33.3659 25.5459 33.6484C25.3408 33.9264 25.2383 34.3639 25.2383 34.9609V35.5078H27.1045V36.3965ZM29.6133 35.5078V43H28.4785V35.5078H29.6133ZM29.0596 32.7051C29.2464 32.7051 29.4059 32.7666 29.5381 32.8896C29.6748 33.0081 29.7432 33.195 29.7432 33.4502C29.7432 33.7008 29.6748 33.8877 29.5381 34.0107C29.4059 34.1338 29.2464 34.1953 29.0596 34.1953C28.8636 34.1953 28.6995 34.1338 28.5674 34.0107C28.4398 33.8877 28.376 33.7008 28.376 33.4502C28.376 33.195 28.4398 33.0081 28.5674 32.8896C28.6995 32.7666 28.8636 32.7051 29.0596 32.7051ZM33.1543 43H32.0127V32.3633H33.1543V43ZM38.4385 35.3711C39.0765 35.3711 39.6234 35.5124 40.0791 35.7949C40.5348 36.0775 40.8835 36.474 41.125 36.9844C41.3665 37.4902 41.4873 38.0827 41.4873 38.7617V39.4658H36.3125C36.3262 40.3454 36.5449 41.0153 36.9688 41.4756C37.3926 41.9359 37.9896 42.166 38.7598 42.166C39.2337 42.166 39.653 42.1227 40.0176 42.0361C40.3822 41.9495 40.7604 41.8219 41.1523 41.6533V42.6514C40.7741 42.82 40.3981 42.943 40.0244 43.0205C39.6553 43.098 39.2178 43.1367 38.7119 43.1367C37.9919 43.1367 37.363 42.9909 36.8252 42.6992C36.292 42.403 35.8773 41.9701 35.5811 41.4004C35.2848 40.8307 35.1367 40.1335 35.1367 39.3086C35.1367 38.502 35.2712 37.8047 35.54 37.2168C35.8135 36.6243 36.1963 36.1686 36.6885 35.8496C37.1852 35.5306 37.7686 35.3711 38.4385 35.3711ZM38.4248 36.3008C37.8187 36.3008 37.3356 36.499 36.9756 36.8955C36.6156 37.292 36.4014 37.8457 36.333 38.5566H40.2979C40.2933 38.11 40.2227 37.7181 40.0859 37.3809C39.9538 37.0391 39.751 36.7747 39.4775 36.5879C39.2041 36.3965 38.8532 36.3008 38.4248 36.3008Z" fill="#666666"/>
</svg>
