<svg width="45" height="47" viewBox="0 0 45 47" fill="none" xmlns="http://www.w3.org/2000/svg">
<path d="M21.5 2C26.468 2 30.5 6.032 30.5 11C30.5 15.968 26.468 20 21.5 20C16.532 20 12.5 15.968 12.5 11C12.5 6.032 16.532 2 21.5 2ZM21.5 18C25.367 18 28.5 14.867 28.5 11C28.5 7.132 25.367 4 21.5 4C17.632 4 14.5 7.132 14.5 11C14.5 14.867 17.632 18 21.5 18ZM29.985 18.071L32.814 20.899L31.399 22.314L28.571 19.485L29.985 18.071Z" fill="#023047"/>
<path d="M7.00684 40.3408C7.00684 40.9333 6.85872 41.4391 6.5625 41.8584C6.27083 42.2731 5.86068 42.5898 5.33203 42.8086C4.80339 43.0273 4.18132 43.1367 3.46582 43.1367C3.08757 43.1367 2.72982 43.1185 2.39258 43.082C2.05534 43.0456 1.74544 42.9932 1.46289 42.9248C1.18034 42.8564 0.931966 42.7721 0.717773 42.6719V41.5576C1.05957 41.6989 1.47656 41.8311 1.96875 41.9541C2.46094 42.0726 2.97591 42.1318 3.51367 42.1318C4.01497 42.1318 4.4388 42.0658 4.78516 41.9336C5.13151 41.7969 5.39355 41.6032 5.57129 41.3525C5.75358 41.0973 5.84473 40.792 5.84473 40.4365C5.84473 40.0947 5.76953 39.8099 5.61914 39.582C5.46875 39.3496 5.2181 39.14 4.86719 38.9531C4.52083 38.7617 4.04688 38.5589 3.44531 38.3447C3.02148 38.1943 2.64779 38.0303 2.32422 37.8525C2.00065 37.6702 1.72949 37.4652 1.51074 37.2373C1.29199 37.0094 1.12565 36.7451 1.01172 36.4443C0.902344 36.1436 0.847656 35.7995 0.847656 35.4121C0.847656 34.8789 0.982096 34.4232 1.25098 34.0449C1.52441 33.6621 1.90039 33.3704 2.37891 33.1699C2.86198 32.9648 3.41569 32.8623 4.04004 32.8623C4.57324 32.8623 5.06543 32.9124 5.5166 33.0127C5.97233 33.113 6.38932 33.2474 6.76758 33.416L6.40527 34.4141C6.04525 34.2637 5.66243 34.1383 5.25684 34.0381C4.85579 33.9378 4.44108 33.8877 4.0127 33.8877C3.58431 33.8877 3.22201 33.9515 2.92578 34.0791C2.63411 34.2021 2.41081 34.3776 2.25586 34.6055C2.10091 34.8333 2.02344 35.1045 2.02344 35.4189C2.02344 35.7699 2.09635 36.0615 2.24219 36.2939C2.39258 36.5264 2.62956 36.7337 2.95312 36.916C3.28125 37.0938 3.71419 37.2806 4.25195 37.4766C4.83984 37.6908 5.33887 37.9186 5.74902 38.1602C6.15918 38.3971 6.47135 38.6888 6.68555 39.0352C6.89974 39.377 7.00684 39.8122 7.00684 40.3408ZM11.7646 35.3711C12.4027 35.3711 12.9495 35.5124 13.4053 35.7949C13.861 36.0775 14.2096 36.474 14.4512 36.9844C14.6927 37.4902 14.8135 38.0827 14.8135 38.7617V39.4658H9.63867C9.65234 40.3454 9.87109 41.0153 10.2949 41.4756C10.7188 41.9359 11.3158 42.166 12.0859 42.166C12.5599 42.166 12.9792 42.1227 13.3438 42.0361C13.7083 41.9495 14.0866 41.8219 14.4785 41.6533V42.6514C14.1003 42.82 13.7243 42.943 13.3506 43.0205C12.9814 43.098 12.5439 43.1367 12.0381 43.1367C11.318 43.1367 10.6891 42.9909 10.1514 42.6992C9.61816 42.403 9.20345 41.9701 8.90723 41.4004C8.611 40.8307 8.46289 40.1335 8.46289 39.3086C8.46289 38.502 8.59733 37.8047 8.86621 37.2168C9.13965 36.6243 9.52246 36.1686 10.0146 35.8496C10.5114 35.5306 11.0947 35.3711 11.7646 35.3711ZM11.751 36.3008C11.1449 36.3008 10.6618 36.499 10.3018 36.8955C9.94173 37.292 9.72754 37.8457 9.65918 38.5566H13.624C13.6195 38.11 13.5488 37.7181 13.4121 37.3809C13.2799 37.0391 13.0771 36.7747 12.8037 36.5879C12.5303 36.3965 12.1794 36.3008 11.751 36.3008ZM19.5439 35.3848C20.4372 35.3848 21.1003 35.5853 21.5332 35.9863C21.9661 36.3874 22.1826 37.0277 22.1826 37.9072V43H21.3555L21.1367 41.8926H21.082C20.8724 42.166 20.6536 42.3962 20.4258 42.583C20.1979 42.7653 19.9336 42.9043 19.6328 43C19.3366 43.0911 18.972 43.1367 18.5391 43.1367C18.0833 43.1367 17.6777 43.057 17.3223 42.8975C16.9714 42.738 16.6934 42.4964 16.4883 42.1729C16.2878 41.8493 16.1875 41.4391 16.1875 40.9424C16.1875 40.195 16.4837 39.6208 17.0762 39.2197C17.6686 38.8187 18.571 38.5999 19.7832 38.5635L21.0752 38.5088V38.0508C21.0752 37.4036 20.9362 36.9502 20.6582 36.6904C20.3802 36.4307 19.9883 36.3008 19.4824 36.3008C19.0905 36.3008 18.7168 36.3577 18.3613 36.4717C18.0059 36.5856 17.6686 36.7201 17.3496 36.875L17.001 36.0137C17.3382 35.8405 17.7256 35.6924 18.1631 35.5693C18.6006 35.4463 19.0609 35.3848 19.5439 35.3848ZM21.0615 39.3086L19.9199 39.3564C18.9857 39.3929 18.3271 39.5456 17.9443 39.8145C17.5615 40.0833 17.3701 40.4639 17.3701 40.9561C17.3701 41.3844 17.5 41.7012 17.7598 41.9062C18.0195 42.1113 18.3636 42.2139 18.792 42.2139C19.4574 42.2139 20.002 42.0293 20.4258 41.6602C20.8496 41.291 21.0615 40.7373 21.0615 39.999V39.3086ZM27.9248 35.3711C28.0752 35.3711 28.2324 35.3802 28.3965 35.3984C28.5605 35.4121 28.7064 35.4326 28.834 35.46L28.6904 36.5127C28.5674 36.4808 28.4307 36.4557 28.2803 36.4375C28.1299 36.4193 27.9886 36.4102 27.8564 36.4102C27.5557 36.4102 27.2708 36.4717 27.002 36.5947C26.7376 36.7132 26.5052 36.8864 26.3047 37.1143C26.1042 37.3376 25.9469 37.6087 25.833 37.9277C25.7191 38.2422 25.6621 38.5931 25.6621 38.9805V43H24.5205V35.5078H25.4639L25.5869 36.8887H25.6348C25.7897 36.6107 25.9766 36.3577 26.1953 36.1299C26.4141 35.8975 26.667 35.7129 26.9541 35.5762C27.2458 35.4395 27.5693 35.3711 27.9248 35.3711ZM33.25 43.1367C32.5755 43.1367 31.9808 42.9977 31.4658 42.7197C30.9508 42.4417 30.5498 42.0179 30.2627 41.4482C29.9756 40.8786 29.832 40.1608 29.832 39.2949C29.832 38.388 29.9824 37.6475 30.2832 37.0732C30.5885 36.4945 31.0078 36.0661 31.541 35.7881C32.0742 35.5101 32.6803 35.3711 33.3594 35.3711C33.7331 35.3711 34.0931 35.4098 34.4395 35.4873C34.7904 35.5602 35.0775 35.6536 35.3008 35.7676L34.959 36.7178C34.7311 36.6266 34.4668 36.5446 34.166 36.4717C33.8698 36.3988 33.5918 36.3623 33.332 36.3623C32.8125 36.3623 32.3796 36.474 32.0332 36.6973C31.6914 36.9206 31.4339 37.2487 31.2607 37.6816C31.0921 38.1146 31.0078 38.6478 31.0078 39.2812C31.0078 39.8874 31.0898 40.4046 31.2539 40.833C31.4225 41.2614 31.6709 41.5895 31.999 41.8174C32.3317 42.0407 32.7464 42.1523 33.2432 42.1523C33.6396 42.1523 33.9974 42.1113 34.3164 42.0293C34.6354 41.9427 34.9248 41.8424 35.1846 41.7285V42.7402C34.9339 42.8678 34.6536 42.9658 34.3438 43.0342C34.0384 43.1025 33.6738 43.1367 33.25 43.1367ZM38.0967 32.3633V35.542C38.0967 35.7243 38.0921 35.9089 38.083 36.0957C38.0739 36.278 38.0579 36.4466 38.0352 36.6016H38.1104C38.2653 36.3372 38.4613 36.1162 38.6982 35.9385C38.9398 35.7562 39.2132 35.6195 39.5186 35.5283C39.8239 35.4326 40.1475 35.3848 40.4893 35.3848C41.0908 35.3848 41.5921 35.4805 41.9932 35.6719C42.3988 35.8633 42.7018 36.1595 42.9023 36.5605C43.1074 36.9616 43.21 37.4811 43.21 38.1191V43H42.0889V38.1943C42.0889 37.57 41.9453 37.1029 41.6582 36.793C41.3757 36.4831 40.9404 36.3281 40.3525 36.3281C39.7965 36.3281 39.3522 36.4352 39.0195 36.6494C38.6914 36.859 38.4544 37.1689 38.3086 37.5791C38.1673 37.9893 38.0967 38.4906 38.0967 39.083V43H36.9619V32.3633H38.0967Z" fill="#023047"/>
</svg>
